<svg width="18" height="18" viewBox="0 0 18 18" fill="none" xmlns="http://www.w3.org/2000/svg">
<g id="Group 73">
<path id="LinkedIn" d="M0 1.99119C0 1.41398 0.202708 0.937786 0.608108 0.562618C1.01351 0.187432 1.54055 -0.000152588 2.18919 -0.000152588C2.82626 -0.000152588 3.34169 0.18454 3.73552 0.55396C4.14092 0.934912 4.34363 1.43129 4.34363 2.04314C4.34363 2.59725 4.14672 3.059 3.7529 3.42842C3.3475 3.80937 2.81467 3.99985 2.15444 3.99985H2.13707C1.49999 3.99985 0.984562 3.80937 0.590734 3.42842C0.196905 3.04747 0 2.56838 0 1.99119ZM0.225869 17.1427V5.5756H4.08301V17.1427H0.225869ZM6.22008 17.1427H10.0772V10.6838C10.0772 10.2798 10.1236 9.96809 10.2162 9.74876C10.3784 9.35626 10.6245 9.02436 10.9546 8.75309C11.2847 8.4818 11.6988 8.34616 12.1969 8.34616C13.4942 8.34616 14.1429 9.21773 14.1429 10.9609V17.1427H18V10.5107C18 8.80215 17.5946 7.50634 16.7838 6.62322C15.973 5.7401 14.9015 5.29855 13.5695 5.29855C12.0753 5.29855 10.9112 5.93924 10.0772 7.22062V7.25526H10.0598L10.0772 7.22062V5.5756H6.22008C6.24324 5.94501 6.25483 7.09363 6.25483 9.02149C6.25483 10.9493 6.24324 13.6564 6.22008 17.1427Z" fill="#0000FF"/>
</g>
</svg>
